<?xml version="1.0" standalone="no"?>
<!DOCTYPE svg PUBLIC "-//W3C//DTD SVG 20010904//EN"
 "http://www.w3.org/TR/2001/REC-SVG-20010904/DTD/svg10.dtd">
<svg version="1.0" xmlns="http://www.w3.org/2000/svg"
 width="700.000000pt" height="700.000000pt" viewBox="0 0 700.000000 700.000000"
 preserveAspectRatio="xMidYMid meet">
<metadata>
Created by potrace 1.14, written by Peter Selinger 2001-2017
</metadata>
<g transform="translate(0.000000,700.000000) scale(0.100000,-0.100000)"
fill="#000000" stroke="none">
<path d="M5400 6564 c-25 -6 -117 -38 -205 -69 -88 -31 -178 -63 -200 -70 -22
-8 -105 -37 -185 -65 -80 -28 -215 -75 -300 -104 -85 -30 -391 -140 -680 -246
-289 -105 -565 -206 -615 -223 l-90 -32 -1380 0 c-1259 1 -1386 -1 -1443 -16
-106 -28 -207 -110 -257 -208 -47 -92 -45 16 -44 -2341 0 -1476 3 -2233 10
-2270 32 -170 160 -341 319 -424 57 -30 87 -41 175 -63 37 -10 5899 -12 5934
-3 55 15 100 52 126 104 l25 50 0 551 0 552 76 38 c82 42 179 128 231 205 34
51 77 153 92 220 11 50 10 1029 -2 1069 -30 105 -57 165 -101 226 -53 73 -145
152 -221 190 l-75 38 0 547 c0 381 -3 557 -11 581 -14 40 -61 93 -104 116 -27
14 -84 20 -236 23 -21 0 -28 8 -46 58 -28 74 -56 147 -138 362 -36 96 -91 243
-121 325 -30 83 -60 161 -65 175 -6 13 -28 74 -50 135 -22 60 -46 126 -54 145
-8 19 -37 98 -65 175 -29 77 -59 151 -68 165 -49 79 -137 111 -232 84z"/>
</g>
</svg>
